<svg width="28" height="29" viewBox="0 0 28 29" fill="none" xmlns="http://www.w3.org/2000/svg">
<mask id="mask0_49_5994" style="mask-type:alpha" maskUnits="userSpaceOnUse" x="0" y="0" width="28" height="29">
<rect y="0.200195" width="28" height="28" fill="#D9D9D9"/>
</mask>
<g mask="url(#mask0_49_5994)">
<path d="M25.6663 7.20028V21.2003C25.6663 21.8419 25.4379 22.3912 24.9809 22.8482C24.524 23.3051 23.9747 23.5336 23.333 23.5336H4.66634C4.02467 23.5336 3.47537 23.3051 3.01842 22.8482C2.56148 22.3912 2.33301 21.8419 2.33301 21.2003V7.20028C2.33301 6.55861 2.56148 6.0093 3.01842 5.55236C3.47537 5.09542 4.02467 4.86694 4.66634 4.86694H23.333C23.9747 4.86694 24.524 5.09542 24.9809 5.55236C25.4379 6.0093 25.6663 6.55861 25.6663 7.20028ZM4.66634 9.53361H23.333V7.20028H4.66634V9.53361ZM4.66634 14.2003V21.2003H23.333V14.2003H4.66634Z" fill="white"/>
</g>
</svg>
