<svg width="19" height="19" viewBox="0 0 19 19" fill="none" xmlns="http://www.w3.org/2000/svg">
<g clip-path="url(#clip0_142_7832)">
<path fill-rule="evenodd" clip-rule="evenodd" d="M15.8475 3.42655C14.163 1.74055 11.9235 0.811297 9.53772 0.810547C4.62147 0.810547 0.620219 4.81105 0.617969 9.72955C0.617219 11.3015 1.02822 12.836 1.80897 14.189L0.542969 18.8105L5.27097 17.57C6.57372 18.281 8.04072 18.6553 9.53322 18.656H9.53697C14.4525 18.656 18.4545 14.6548 18.4567 9.7363C18.4582 7.35355 17.5312 5.1118 15.8475 3.42655ZM9.53772 17.1493H9.53472C8.20422 17.1493 6.89997 16.7915 5.76147 16.1158L5.49072 15.9553L2.68497 16.691L3.43422 13.955L3.25797 13.6745C2.51547 12.494 2.12397 11.1298 2.12472 9.72955C2.12622 5.64205 5.45247 2.31655 9.54147 2.31655C11.5215 2.31655 13.383 3.08905 14.7825 4.49005C16.182 5.8918 16.9522 7.75405 16.9515 9.7348C16.9492 13.8238 13.6237 17.1493 9.53772 17.1493ZM13.6042 11.597C13.3815 11.4853 12.2857 10.946 12.081 10.8718C11.877 10.7975 11.7285 10.76 11.5792 10.9828C11.43 11.2055 11.004 11.708 10.8735 11.8573C10.7437 12.0058 10.6132 12.0245 10.3905 11.9128C10.1677 11.801 9.44922 11.5663 8.59797 10.8065C7.93572 10.2155 7.48797 9.4858 7.35822 9.2623C7.22847 9.0388 7.34472 8.9188 7.45572 8.8078C7.55622 8.70805 7.67847 8.54755 7.79022 8.41705C7.90272 8.28805 7.93947 8.19505 8.01447 8.0458C8.08872 7.8973 8.05197 7.7668 7.99572 7.65505C7.93947 7.54405 7.49397 6.4468 7.30872 6.00055C7.12797 5.56555 6.94422 5.6248 6.80697 5.61805C6.67722 5.6113 6.52872 5.61055 6.37947 5.61055C6.23097 5.61055 5.98947 5.66605 5.78547 5.88955C5.58147 6.11305 5.00547 6.6523 5.00547 7.7488C5.00547 8.84605 5.80422 9.9058 5.91522 10.0543C6.02622 10.2028 7.48647 12.4543 9.72222 13.4195C10.254 13.649 10.6695 13.7863 10.9927 13.889C11.5267 14.0585 12.0127 14.0345 12.3967 13.9775C12.825 13.9138 13.7152 13.4383 13.9012 12.9178C14.0872 12.3973 14.0872 11.9503 14.031 11.858C13.9755 11.7643 13.827 11.7088 13.6042 11.597Z" fill="black"/>
</g>
<defs>
<clipPath id="clip0_142_7832">
<rect width="18" height="18" fill="white" transform="translate(0.5 0.810547)"/>
</clipPath>
</defs>
</svg>
