<svg width="31" height="32" viewBox="0 0 31 32" fill="none" xmlns="http://www.w3.org/2000/svg">
<g clip-path="url(#clip0_49_5998)">
<path d="M7.7618 25.4H4.46378C3.29947 25.4 2.35156 24.4412 2.35156 23.2636V10.6701C2.35156 9.49245 3.29947 8.53369 4.46378 8.53369H7.7618V10.4077H4.46378C4.32074 10.4077 4.20438 10.5254 4.20438 10.6701V23.2636C4.20438 23.4083 4.32074 23.526 4.46378 23.526H7.7618V25.4Z" fill="white"/>
<path d="M26.1017 25.4H22.8037V23.526H26.1017C26.2448 23.526 26.3611 23.4083 26.3611 23.2636V10.6701C26.3611 10.5254 26.2448 10.4077 26.1017 10.4077H22.8037V8.53369H26.1017C27.266 8.53369 28.2139 9.49245 28.2139 10.6701V23.2636C28.2139 24.4412 27.266 25.4 26.1017 25.4Z" fill="white"/>
<path d="M8.22489 13.1062H6.37207V20.9771H8.22489V13.1062Z" fill="white"/>
<path d="M24.2893 13.1062H22.4365V20.9771H24.2893V13.1062Z" fill="white"/>
<path d="M12.2405 10.8574H10.3877V23.0761H12.2405V10.8574Z" fill="white"/>
<path d="M20.2737 10.8574H18.4209V23.0761H20.2737V10.8574Z" fill="white"/>
<path d="M16.2571 12.2444H14.4043V21.8394H16.2571V12.2444Z" fill="white"/>
</g>
<defs>
<clipPath id="clip0_49_5998">
<rect width="25.8617" height="16.8663" fill="white" transform="translate(2.35156 8.53369)"/>
</clipPath>
</defs>
</svg>
