<svg width="29" height="29" viewBox="0 0 29 29" fill="none" xmlns="http://www.w3.org/2000/svg">
<path d="M21.5216 20.6927C21.049 20.6938 20.5808 20.6012 20.144 20.4204C19.7073 20.2396 19.3107 19.9741 18.9771 19.6392L15.3021 15.9642C15.172 15.8407 14.9994 15.7717 14.82 15.7717C14.6406 15.7717 14.468 15.8407 14.3379 15.9642L10.6489 19.6532C10.3154 19.9883 9.91883 20.2539 9.48208 20.4347C9.04534 20.6155 8.57708 20.708 8.10438 20.7067H7.37988L12.0349 25.3617C13.4874 26.8142 15.8446 26.8142 17.2971 25.3617L21.9644 20.6927H21.5216ZM8.10438 7.69374C9.06688 7.69374 9.96988 8.06824 10.6489 8.74724L14.3379 12.4362C14.4013 12.4997 14.4766 12.5501 14.5594 12.5845C14.6423 12.6188 14.7312 12.6365 14.8209 12.6365C14.9106 12.6365 14.9994 12.6188 15.0823 12.5845C15.1652 12.5501 15.2405 12.4997 15.3039 12.4362L18.9789 8.76124C19.3122 8.42643 19.7084 8.16095 20.1449 7.98013C20.5813 7.79931 21.0492 7.70674 21.5216 7.70774H21.9644L17.2971 3.04049C16.5991 2.34299 15.6528 1.95117 14.666 1.95117C13.6792 1.95117 12.7329 2.34299 12.0349 3.04049L7.37988 7.69549L8.10438 7.69374Z" fill="white"/>
<path d="M25.8268 11.5681L23.0058 8.74711C22.9425 8.77312 22.8748 8.78678 22.8063 8.78736H21.5236C20.8603 8.78736 20.2111 9.05686 19.7438 9.52586L16.0688 13.2009C15.9054 13.3652 15.7111 13.4955 15.4971 13.5845C15.2832 13.6735 15.0537 13.7192 14.822 13.7192C14.5902 13.7192 14.3608 13.6735 14.1468 13.5845C13.9328 13.4955 13.7385 13.3652 13.5751 13.2009L9.88609 9.51011C9.4128 9.03877 8.77255 8.77336 8.10459 8.77161H6.52959C6.4643 8.77109 6.39965 8.75864 6.33884 8.73486L3.50734 11.5681C2.05484 13.0206 2.05484 15.3779 3.50734 16.8321L6.33884 19.6636C6.39898 19.6394 6.46303 19.6264 6.52784 19.6251H8.10459C8.76959 19.6251 9.41709 19.3574 9.88609 18.8884L13.5733 15.1976C13.9098 14.8773 14.3565 14.6986 14.8211 14.6986C15.2856 14.6986 15.7324 14.8773 16.0688 15.1976L19.7438 18.8726C20.2111 19.3416 20.8603 19.6094 21.5236 19.6094H22.8063C22.8763 19.6094 22.9446 19.6269 23.0058 19.6514L25.8268 16.8304C27.2793 15.3779 27.2793 13.0206 25.8268 11.5681Z" fill="white"/>
</svg>
