<svg width="24" height="25" viewBox="0 0 24 25" fill="none" xmlns="http://www.w3.org/2000/svg">
<mask id="mask0_102_385" style="mask-type:alpha" maskUnits="userSpaceOnUse" x="0" y="0" width="24" height="25">
<rect y="0.5" width="24" height="24" fill="#D9D9D9"/>
</mask>
<g mask="url(#mask0_102_385)">
<path d="M12 22.5C10.6167 22.5 9.31667 22.2375 8.1 21.7125C6.88333 21.1875 5.825 20.4709 4.925 19.5625C4.025 18.6542 3.3125 17.5917 2.7875 16.375C2.2625 15.1584 2 13.8667 2 12.5C2 9.88338 2.86667 7.63338 4.6 5.75005C6.33333 3.86672 8.46667 2.80005 11 2.55005V5.55005C9.28333 5.78338 7.85417 6.55422 6.7125 7.86255C5.57083 9.17088 5 10.7167 5 12.5C5 14.4334 5.68333 16.0834 7.05 17.45C8.41667 18.8167 10.0667 19.5 12 19.5C13.1 19.5 14.1292 19.2667 15.0875 18.8C16.0458 18.3334 16.85 17.7 17.5 16.9L20.1 18.4C19.2 19.65 18.0417 20.6459 16.625 21.3875C15.2083 22.1292 13.6667 22.5 12 22.5ZM21.15 16.55L18.55 15.05C18.7 14.65 18.8125 14.2375 18.8875 13.8125C18.9625 13.3875 19 12.95 19 12.5C19 10.7167 18.4292 9.17088 17.2875 7.86255C16.1458 6.55422 14.7167 5.78338 13 5.55005V2.55005C15.5333 2.80005 17.6667 3.86672 19.4 5.75005C21.1333 7.63338 22 9.88338 22 12.5C22 13.2334 21.9333 13.9417 21.8 14.625C21.6667 15.3084 21.45 15.95 21.15 16.55Z" fill="#F4F4F4"/>
</g>
</svg>
