<svg width="25" height="30" viewBox="0 0 25 30" fill="none" xmlns="http://www.w3.org/2000/svg">
<path fill-rule="evenodd" clip-rule="evenodd" d="M21.0731 21.5141C23.2063 21.5141 24.936 19.7844 24.936 17.652C24.936 15.6299 23.3822 13.971 21.4036 13.8035C21.4036 13.8035 17.4797 13.4 14.5388 13.2546L21.2376 12.9752C23.3243 12.9227 25 11.247 25 9.11383C25 6.98063 23.2711 5.25169 21.1379 5.25169C20.9825 5.25169 20.8288 5.26083 20.678 5.2791C20.7016 5.10704 20.7138 4.93118 20.7138 4.75303C20.7138 2.61983 18.9841 0.890889 16.8517 0.890889C14.8296 0.890889 13.17 2.44473 13.0032 4.42338C13.0032 4.42338 12.5921 8.52686 12.4414 11.5318H12.4383L12.146 4.51245C12.0683 2.44854 10.4209 0.800293 8.28765 0.800293C6.15445 0.800293 4.42551 2.52923 4.42551 4.66243C4.42551 4.81774 4.43465 4.97153 4.45292 5.12227C4.28086 5.09867 4.105 5.08648 3.92685 5.08648C1.79365 5.08648 0.0647116 6.81619 0.0647116 8.94939C0.0647116 10.9714 1.61855 12.6303 3.5972 12.7971C3.5972 12.7971 7.51568 13.2006 10.4536 13.3467L3.71216 13.6284C1.64824 13.7061 0 15.3536 0 17.4868C0 19.6199 1.72894 21.3489 3.86214 21.3489C4.01745 21.3489 4.17123 21.3398 4.32197 21.3215C4.29837 21.4935 4.28619 21.6694 4.28619 21.8476C4.28619 23.9808 6.01589 25.7097 8.14909 25.7097C10.1711 25.7097 11.83 24.1559 11.9968 22.1772C11.9968 22.1772 12.4079 18.0737 12.5586 15.0696H12.5617L12.8517 22.0379C12.9043 24.1246 14.5791 25.8003 16.7123 25.8003C18.8455 25.8003 20.5752 24.0713 20.5752 21.9381C20.5752 21.7828 20.5661 21.6291 20.5478 21.4783C20.7199 21.5019 20.895 21.5141 21.0731 21.5141ZM11.2788 28.7656C12.7984 26.3324 13.0953 23.728 12.5236 22.0409L12.4475 22.034C12.4435 22.0483 12.4395 22.0627 12.4354 22.0773C12.1703 23.0337 11.6585 24.88 9.35195 27.3762C9.35119 27.3777 9.35043 27.3785 9.34967 27.3792C8.94694 27.8147 9.07331 28.5143 9.60395 28.7778C10.2077 29.0777 11.0573 29.1203 11.2788 28.7656Z" fill="#F4F4F4"/>
</svg>
